<?xml version="1.0" encoding="utf-8"?>
<!-- Generator: Adobe Illustrator 18.1.1, SVG Export Plug-In . SVG Version: 6.00 Build 0)  -->
<svg version="1.1" id="Layer_1" xmlns="http://www.w3.org/2000/svg" xmlns:xlink="http://www.w3.org/1999/xlink" x="0px" y="0px"
	 viewBox="0 0 50 80" enable-background="new 0 0 50 80" xml:space="preserve">
<g>
	<rect x="-0.1" fill="#C0202F" width="50.1" height="81.5"/>
	<g>
		<path fill="#FFFFFF" d="M13.5,48.8h6.8v1.5h-6.8v12.4c0,2.4,1.5,3.9,3.7,3.9h3.1v1.5h-2.8c-3.7,0-5.6-2.1-5.6-5.5v-19h1.5V48.8z"
			/>
		<path fill="#FFFFFF" d="M37.1,68.1V56.5c0-4-2.8-6.7-6.2-6.7s-6.2,2.6-6.2,6.7v11.5h-1.5V39.6h1.5v11.8h0.1c1.3-1.9,3.6-3,6.1-3
			c4.3,0,7.7,3.2,7.7,7.9v11.7H37.1z"/>
	</g>
</g>
</svg>
